<svg width="49" height="49" viewBox="0 0 49 49" fill="none" xmlns="http://www.w3.org/2000/svg">
<path d="M28.3855 22.232L28.6096 26.7641L24.0128 23.5784L19.3902 26.7671L19.6145 22.232H17.6731L17.3385 29H19.5618L24.0102 25.9314L28.438 29H30.6615L30.3269 22.232H28.3855ZM33.6592 8.38873L33.5263 5.4849L31.0713 3.91818L29.5 1.46968L26.5882 1.33674L24 0L21.4118 1.33704L18.5 1.46998L16.9287 3.91818L14.4737 5.4849L14.3408 8.38873L13 10.9699L14.3408 13.5511L14.4741 16.4548L16.9287 18.0216L18.4998 20.4701L21.4116 20.6028L24 21.9398L26.5882 20.6028L29.5 20.4701L31.0711 18.0216L33.5262 16.4551L33.6592 13.5513L35 10.9701L33.6592 8.38873ZM31.7417 13.0386L31.6348 15.366L29.6671 16.6217L28.4079 18.5841L26.0741 18.6904L24 19.762L21.9256 18.6904L19.5918 18.5841L18.3327 16.6217L16.3652 15.366L16.2586 13.0386L15.1836 10.9699L16.2583 8.90152L16.3652 6.57382L18.3327 5.31812L19.5918 3.35577L21.9256 3.24941L24 2.17778L26.0744 3.24935L28.4082 3.35571L29.6673 5.31806L31.6348 6.57382L31.7414 8.90122L32.8164 10.9699L31.7417 13.0386Z" fill="#323031"/>
<path d="M1.274 43V32.64H4.984C7.238 32.64 8.526 33.508 8.526 35.23C8.526 36.644 7.672 37.4 6.608 37.624V37.652C7.882 37.89 8.862 38.66 8.862 40.172C8.862 41.908 7.574 43 5.278 43H1.274ZM2.492 37.162H4.872C6.426 37.162 7.322 36.616 7.322 35.426C7.322 34.236 6.58 33.732 4.9 33.732H2.492V37.162ZM2.492 41.922H5.194C6.888 41.922 7.644 41.278 7.644 40.088C7.644 38.786 6.608 38.226 4.942 38.226H2.492V41.922ZM12.3817 43.112C11.1077 43.112 10.2957 42.44 10.2957 41.25C10.2957 39.752 11.5697 38.688 15.2377 38.17V37.834C15.2377 36.91 14.7477 36.462 13.8377 36.462C12.7177 36.462 11.8917 36.952 11.1637 37.582L10.5337 36.826C11.3877 36.042 12.4937 35.454 13.9637 35.454C15.7277 35.454 16.4277 36.378 16.4277 37.918V41.18C16.4277 42.076 16.4837 42.622 16.6377 43H15.4057C15.3077 42.692 15.2377 42.398 15.2377 41.978C14.4117 42.748 13.4877 43.112 12.3817 43.112ZM12.7317 42.16C13.7117 42.16 14.5517 41.754 15.2377 41.082V39.01C12.4237 39.458 11.4857 40.144 11.4857 41.068C11.4857 41.782 11.9617 42.16 12.7317 42.16ZM21.086 43.112C19.392 43.112 18.076 41.894 18.076 39.318C18.076 36.742 19.42 35.454 21.226 35.454C22.122 35.454 22.962 35.902 23.522 36.546V32.64H24.726V41.18C24.726 42.076 24.782 42.622 24.95 43H23.69C23.606 42.762 23.522 42.328 23.522 41.95C22.934 42.594 22.192 43.112 21.086 43.112ZM21.38 42.118C22.234 42.118 22.906 41.656 23.522 40.984V37.596C22.878 36.868 22.178 36.476 21.394 36.476C20.106 36.476 19.28 37.386 19.28 39.332C19.28 41.222 20.19 42.118 21.38 42.118ZM29.6068 45.842C27.1148 45.842 26.0368 45.128 26.0368 44.008C26.0368 43.252 26.5548 42.692 27.3808 42.37C26.9608 42.174 26.7508 41.866 26.7508 41.432C26.7508 40.956 27.1428 40.55 27.6748 40.242C26.9608 39.78 26.5408 39.038 26.5408 38.114C26.5408 36.56 27.7868 35.454 29.5508 35.454C30.4608 35.454 31.2168 35.762 31.7348 36.224C32.1828 35.888 32.8828 35.608 33.4848 35.538V36.602C33.0788 36.602 32.5888 36.672 32.1548 36.84C32.3928 37.176 32.5328 37.61 32.5328 38.114C32.5328 39.71 31.2728 40.746 29.5508 40.746C29.1168 40.746 28.7528 40.676 28.3748 40.564C28.0668 40.704 27.8568 40.886 27.8568 41.138C27.8568 41.446 28.0948 41.586 28.8788 41.656L30.3908 41.782C32.2668 41.908 33.2188 42.51 33.2188 43.7C33.2188 45.1 31.7488 45.842 29.6068 45.842ZM29.5648 39.864C30.6988 39.864 31.4128 39.206 31.4128 38.142C31.4128 37.064 30.7408 36.392 29.5508 36.392C28.4028 36.392 27.6888 37.078 27.6888 38.142C27.6888 39.206 28.4308 39.864 29.5648 39.864ZM29.7608 44.932C31.2308 44.932 32.1128 44.484 32.1128 43.812C32.1128 43.154 31.6228 42.86 30.0688 42.748L28.6688 42.65C28.5288 42.636 28.3888 42.622 28.2488 42.608C27.5348 42.86 27.1568 43.322 27.1568 43.826C27.1568 44.568 27.9268 44.932 29.7608 44.932ZM37.5681 43.154C35.8181 43.154 34.2221 41.88 34.2221 39.304C34.2221 36.616 36.0141 35.454 37.5681 35.454C39.3181 35.454 40.6481 36.686 40.6481 39.36V39.612H35.4261C35.4681 41.278 36.4341 42.174 37.6521 42.174C38.7161 42.174 39.3181 41.74 39.8781 40.97L40.5781 41.586C39.8921 42.566 38.9541 43.154 37.5681 43.154ZM35.4541 38.674H39.5001C39.4021 37.358 38.7721 36.462 37.5541 36.462C36.5601 36.462 35.6221 37.148 35.4541 38.674ZM44.722 43.14C43.392 43.14 42.3 42.608 41.698 41.88L42.426 41.152C42.986 41.754 43.728 42.174 44.736 42.174C45.884 42.174 46.514 41.768 46.514 41.012C46.514 40.27 45.87 39.99 44.61 39.696C43.042 39.318 41.964 38.898 41.964 37.47C41.964 36.35 42.944 35.454 44.554 35.454C45.856 35.454 46.696 35.874 47.382 36.518L46.752 37.316C46.192 36.798 45.436 36.434 44.61 36.434C43.532 36.434 43.112 36.91 43.112 37.428C43.112 38.114 43.7 38.366 44.862 38.632C46.528 39.038 47.676 39.444 47.676 40.97C47.676 42.384 46.402 43.14 44.722 43.14Z" fill="#323031"/>
</svg>
