<svg width="64" height="48" viewBox="0 0 64 48" fill="none" xmlns="http://www.w3.org/2000/svg">
<path d="M1.274 42V31.64H2.506V40.88H7.49V42H1.274ZM11.5095 42.154C9.75953 42.154 8.16353 40.88 8.16353 38.304C8.16353 35.616 9.95553 34.454 11.5095 34.454C13.2595 34.454 14.5895 35.686 14.5895 38.36V38.612H9.36753C9.40953 40.278 10.3755 41.174 11.5935 41.174C12.6575 41.174 13.2595 40.74 13.8195 39.97L14.5195 40.586C13.8335 41.566 12.8955 42.154 11.5095 42.154ZM9.39553 37.674H13.4415C13.3435 36.358 12.7135 35.462 11.4955 35.462C10.5015 35.462 9.56353 36.148 9.39553 37.674ZM17.8231 42.112C16.5491 42.112 15.7371 41.44 15.7371 40.25C15.7371 38.752 17.0111 37.688 20.6791 37.17V36.834C20.6791 35.91 20.1891 35.462 19.2791 35.462C18.1591 35.462 17.3331 35.952 16.6051 36.582L15.9751 35.826C16.8291 35.042 17.9351 34.454 19.4051 34.454C21.1691 34.454 21.8691 35.378 21.8691 36.918V40.18C21.8691 41.076 21.9251 41.622 22.0791 42H20.8471C20.7491 41.692 20.6791 41.398 20.6791 40.978C19.8531 41.748 18.9291 42.112 17.8231 42.112ZM18.1731 41.16C19.1531 41.16 19.9931 40.754 20.6791 40.082V38.01C17.8651 38.458 16.9271 39.144 16.9271 40.068C16.9271 40.782 17.4031 41.16 18.1731 41.16ZM23.9234 42V34.608H25.1274V35.98H25.1554C25.7014 35.126 26.5694 34.454 28.0114 34.454H28.1654L28.0814 35.574C28.0394 35.56 27.7734 35.56 27.7314 35.56C26.5554 35.56 25.6734 36.176 25.1274 37.226V42H23.9234ZM29.5288 42V34.608H30.7468V35.714C31.3908 35.084 32.3148 34.454 33.5188 34.454C34.9328 34.454 35.7028 35.266 35.7028 36.666V42H34.4988V36.932C34.4988 35.952 34.0788 35.49 33.1408 35.49C32.2588 35.49 31.5168 35.952 30.7468 36.68V42H29.5288ZM37.8153 33.026V31.85H39.0753V33.026H37.8153ZM37.8433 42V34.608H39.0473V42H37.8433ZM41.2593 42V34.608H42.4773V35.714C43.1213 35.084 44.0453 34.454 45.2493 34.454C46.6633 34.454 47.4333 35.266 47.4333 36.666V42H46.2293V36.932C46.2293 35.952 45.8093 35.49 44.8713 35.49C43.9893 35.49 43.2473 35.952 42.4773 36.68V42H41.2593ZM52.2338 44.842C49.7418 44.842 48.6638 44.128 48.6638 43.008C48.6638 42.252 49.1818 41.692 50.0078 41.37C49.5878 41.174 49.3778 40.866 49.3778 40.432C49.3778 39.956 49.7698 39.55 50.3018 39.242C49.5878 38.78 49.1678 38.038 49.1678 37.114C49.1678 35.56 50.4138 34.454 52.1778 34.454C53.0878 34.454 53.8438 34.762 54.3618 35.224C54.8098 34.888 55.5098 34.608 56.1118 34.538V35.602C55.7058 35.602 55.2158 35.672 54.7818 35.84C55.0198 36.176 55.1598 36.61 55.1598 37.114C55.1598 38.71 53.8998 39.746 52.1778 39.746C51.7438 39.746 51.3798 39.676 51.0018 39.564C50.6938 39.704 50.4838 39.886 50.4838 40.138C50.4838 40.446 50.7218 40.586 51.5058 40.656L53.0178 40.782C54.8938 40.908 55.8458 41.51 55.8458 42.7C55.8458 44.1 54.3758 44.842 52.2338 44.842ZM52.1918 38.864C53.3258 38.864 54.0398 38.206 54.0398 37.142C54.0398 36.064 53.3678 35.392 52.1778 35.392C51.0298 35.392 50.3158 36.078 50.3158 37.142C50.3158 38.206 51.0578 38.864 52.1918 38.864ZM52.3878 43.932C53.8578 43.932 54.7398 43.484 54.7398 42.812C54.7398 42.154 54.2498 41.86 52.6958 41.748L51.2958 41.65C51.1558 41.636 51.0158 41.622 50.8758 41.608C50.1618 41.86 49.7838 42.322 49.7838 42.826C49.7838 43.568 50.5538 43.932 52.3878 43.932ZM59.8841 42.14C58.5541 42.14 57.4621 41.608 56.8601 40.88L57.5881 40.152C58.1481 40.754 58.8901 41.174 59.8981 41.174C61.0461 41.174 61.6761 40.768 61.6761 40.012C61.6761 39.27 61.0321 38.99 59.7721 38.696C58.2041 38.318 57.1261 37.898 57.1261 36.47C57.1261 35.35 58.1061 34.454 59.7161 34.454C61.0181 34.454 61.8581 34.874 62.5441 35.518L61.9141 36.316C61.3541 35.798 60.5981 35.434 59.7721 35.434C58.6941 35.434 58.2741 35.91 58.2741 36.428C58.2741 37.114 58.8621 37.366 60.0241 37.632C61.6901 38.038 62.8381 38.444 62.8381 39.97C62.8381 41.384 61.5641 42.14 59.8841 42.14Z" fill="#323031"/>
<path d="M31.5 8.25C32.3929 4.79594 35.7651 3.03227 43.1071 3.00001C43.2245 2.99957 43.3408 3.02191 43.4493 3.06573C43.5579 3.10955 43.6565 3.17398 43.7395 3.25532C43.8225 3.33666 43.8882 3.43329 43.9329 3.53965C43.9776 3.646 44.0004 3.75998 44 3.87501V19.625C44 19.8571 43.9059 20.0796 43.7385 20.2437C43.571 20.4078 43.3439 20.5 43.1071 20.5C35.9643 20.5 33.2048 21.9115 31.5 24M31.5 8.25C30.6071 4.79594 27.2349 3.03227 19.8929 3.00001C19.7755 2.99957 19.6592 3.02191 19.5507 3.06573C19.4421 3.10955 19.3435 3.17398 19.2605 3.25532C19.1775 3.33666 19.1118 3.43329 19.0671 3.53965C19.0224 3.646 18.9996 3.75998 19 3.87501V19.5195C19 20.0598 19.3415 20.5 19.8929 20.5C27.0357 20.5 29.8052 21.9219 31.5 24M31.5 8.25V24" stroke="#323031" stroke-width="2" stroke-linecap="round" stroke-linejoin="round"/>
</svg>
