<svg width="48" height="48" viewBox="0 0 48 48" fill="none" xmlns="http://www.w3.org/2000/svg">
<path d="M5.274 42V31.64H6.506V35.98H11.84V31.64H13.072V42H11.84V37.114H6.506V42H5.274ZM18.4376 42.154C16.6316 42.154 14.9936 40.838 14.9936 38.304C14.9936 35.756 16.6176 34.454 18.4376 34.454C20.2436 34.454 21.8676 35.756 21.8676 38.304C21.8676 40.838 20.2436 42.154 18.4376 42.154ZM18.4376 41.132C19.8376 41.132 20.6496 39.998 20.6496 38.304C20.6496 36.764 19.9076 35.49 18.4376 35.49C17.0236 35.49 16.2116 36.638 16.2116 38.304C16.2116 39.872 16.9396 41.132 18.4376 41.132ZM23.5757 42V34.608H24.7797V35.728C25.4797 35.028 26.3337 34.454 27.4397 34.454C28.6857 34.454 29.2177 34.986 29.4697 35.756C30.1837 35.056 31.0937 34.454 32.1997 34.454C33.7117 34.454 34.3417 35.336 34.3417 36.666V42H33.1377V36.932C33.1377 35.952 32.8157 35.49 31.8497 35.49C31.0237 35.49 30.3377 35.952 29.5677 36.68V42H28.3637V36.932C28.3637 35.952 28.0417 35.49 27.0757 35.49C26.2637 35.49 25.5637 35.952 24.7797 36.68V42H23.5757ZM39.3396 42.154C37.5896 42.154 35.9936 40.88 35.9936 38.304C35.9936 35.616 37.7856 34.454 39.3396 34.454C41.0896 34.454 42.4196 35.686 42.4196 38.36V38.612H37.1976C37.2396 40.278 38.2056 41.174 39.4236 41.174C40.4876 41.174 41.0896 40.74 41.6496 39.97L42.3496 40.586C41.6636 41.566 40.7256 42.154 39.3396 42.154ZM37.2256 37.674H41.2716C41.1736 36.358 40.5436 35.462 39.3256 35.462C38.3316 35.462 37.3936 36.148 37.2256 37.674Z" fill="#323031"/>
<path d="M12 8.04835L23.6784 2.07752C23.7783 2.02654 23.8884 2 24 2C24.1116 2 24.2217 2.02654 24.3216 2.07752L36 8.04835M33.6 11.7295V21.5459C33.6 22.1968 33.3471 22.821 32.8971 23.2812C32.447 23.7414 31.8365 24 31.2 24H16.8C16.1635 24 15.553 23.7414 15.1029 23.2812C14.6529 22.821 14.4 22.1968 14.4 21.5459V11.7295" stroke="#323031" stroke-width="2" stroke-linecap="round" stroke-linejoin="round"/>
</svg>
