<svg width="56" height="49" viewBox="0 0 56 49" fill="none" xmlns="http://www.w3.org/2000/svg">
<path d="M23.1 14.0167C23.1 12.3423 23.1 11.5056 23.6207 10.9873C24.1401 10.4667 24.9768 10.4667 26.65 10.4667H29.0167C30.6911 10.4667 31.5277 10.4667 32.046 10.9873C32.5667 11.5068 32.5667 12.3434 32.5667 14.0167V24.6667V21.1167C32.5667 19.4423 32.5667 18.6056 33.0873 18.0873C33.6068 17.5667 34.4434 17.5667 36.1167 17.5667C37.7911 17.5667 38.6277 17.5667 39.146 18.0873C39.6667 18.6068 39.6667 19.4434 39.6667 21.1167V24.6667M23.1 18.75V24.6667C23.1 22.9934 23.1 22.1568 22.5793 21.6373C22.061 21.1167 21.2244 21.1167 19.55 21.1167C17.8768 21.1167 17.0402 21.1167 16.5207 21.6373C16 22.1556 16 22.9923 16 24.6667" stroke="#1A2854" stroke-width="2" stroke-linecap="round"/>
<path d="M26.8228 2.21055C27.2725 1.40233 27.4973 1 27.8334 1C28.1694 1 28.3943 1.40233 28.8439 2.21055L28.9599 2.41882C29.0877 2.64838 29.1516 2.76198 29.251 2.83772C29.3516 2.91345 29.4758 2.94185 29.7243 2.99747L29.9492 3.04953C30.8225 3.24715 31.2591 3.34537 31.3632 3.67907C31.4674 4.01395 31.1692 4.36185 30.574 5.05765L30.4201 5.23752C30.2509 5.43513 30.1657 5.53335 30.1278 5.65642C30.09 5.77948 30.103 5.91083 30.1278 6.17472L30.1515 6.41493C30.2414 7.34385 30.2864 7.8089 30.0154 8.0148C29.7433 8.22188 29.3338 8.03255 28.5161 7.65625L28.3055 7.55922C28.0724 7.45272 27.9564 7.39828 27.8334 7.39828C27.7103 7.39828 27.5943 7.45272 27.3612 7.55922L27.1506 7.65625C26.3329 8.03255 25.9235 8.22188 25.6513 8.0148C25.3791 7.8089 25.4253 7.34385 25.5152 6.41493L25.5389 6.17472C25.5637 5.91083 25.5767 5.77948 25.5389 5.65642C25.501 5.53453 25.4158 5.43513 25.2466 5.23752L25.0928 5.05765C24.4975 4.36185 24.1993 4.01395 24.3035 3.67907C24.4076 3.34537 24.8443 3.24715 25.7176 3.04953L25.9424 2.99747C26.1909 2.94185 26.3151 2.91463 26.4157 2.83772C26.5151 2.76198 26.579 2.64838 26.7068 2.41882L26.8228 2.21055Z" stroke="#1A2854" stroke-width="2"/>
<path d="M2.9488 43V32.64H6.50481C8.8568 32.64 10.1868 33.634 10.1868 35.538C10.1868 37.204 9.2488 38.072 7.7788 38.38L10.3268 43H8.9828L6.50481 38.534H4.1668V43H2.9488ZM4.1668 37.442H6.4348C8.05881 37.442 8.96881 36.994 8.96881 35.58C8.96881 34.222 8.0728 33.76 6.4208 33.76H4.1668V37.442ZM13.7147 43.112C12.4407 43.112 11.6287 42.44 11.6287 41.25C11.6287 39.752 12.9027 38.688 16.5707 38.17V37.834C16.5707 36.91 16.0807 36.462 15.1707 36.462C14.0507 36.462 13.2247 36.952 12.4967 37.582L11.8667 36.826C12.7207 36.042 13.8267 35.454 15.2967 35.454C17.0607 35.454 17.7607 36.378 17.7607 37.918V41.18C17.7607 42.076 17.8167 42.622 17.9707 43H16.7387C16.6407 42.692 16.5707 42.398 16.5707 41.978C15.7447 42.748 14.8207 43.112 13.7147 43.112ZM14.0647 42.16C15.0447 42.16 15.8847 41.754 16.5707 41.082V39.01C13.7567 39.458 12.8187 40.144 12.8187 41.068C12.8187 41.782 13.2947 42.16 14.0647 42.16ZM19.815 43V35.608H21.033V36.714C21.677 36.084 22.601 35.454 23.805 35.454C25.219 35.454 25.989 36.266 25.989 37.666V43H24.785V37.932C24.785 36.952 24.365 36.49 23.427 36.49C22.545 36.49 21.803 36.952 21.033 37.68V43H19.815ZM28.0454 43V32.64H29.2494V39.304L32.5534 35.608H33.9254L31.5034 38.254L34.1914 43H32.9034L30.7194 39.15L29.2494 40.732V43H28.0454ZM35.662 34.026V32.85H36.922V34.026H35.662ZM35.69 43V35.608H36.894V43H35.69ZM39.106 43V35.608H40.324V36.714C40.968 36.084 41.892 35.454 43.096 35.454C44.51 35.454 45.28 36.266 45.28 37.666V43H44.076V37.932C44.076 36.952 43.656 36.49 42.718 36.49C41.836 36.49 41.094 36.952 40.324 37.68V43H39.106ZM50.0805 45.842C47.5885 45.842 46.5105 45.128 46.5105 44.008C46.5105 43.252 47.0285 42.692 47.8545 42.37C47.4345 42.174 47.2245 41.866 47.2245 41.432C47.2245 40.956 47.6165 40.55 48.1485 40.242C47.4345 39.78 47.0145 39.038 47.0145 38.114C47.0145 36.56 48.2605 35.454 50.0245 35.454C50.9345 35.454 51.6905 35.762 52.2085 36.224C52.6565 35.888 53.3565 35.608 53.9585 35.538V36.602C53.5525 36.602 53.0625 36.672 52.6285 36.84C52.8665 37.176 53.0065 37.61 53.0065 38.114C53.0065 39.71 51.7465 40.746 50.0245 40.746C49.5905 40.746 49.2265 40.676 48.8485 40.564C48.5405 40.704 48.3305 40.886 48.3305 41.138C48.3305 41.446 48.5685 41.586 49.3525 41.656L50.8645 41.782C52.7405 41.908 53.6925 42.51 53.6925 43.7C53.6925 45.1 52.2225 45.842 50.0805 45.842ZM50.0385 39.864C51.1725 39.864 51.8865 39.206 51.8865 38.142C51.8865 37.064 51.2145 36.392 50.0245 36.392C48.8765 36.392 48.1625 37.078 48.1625 38.142C48.1625 39.206 48.9045 39.864 50.0385 39.864ZM50.2345 44.932C51.7045 44.932 52.5865 44.484 52.5865 43.812C52.5865 43.154 52.0965 42.86 50.5425 42.748L49.1425 42.65C49.0025 42.636 48.8625 42.622 48.7225 42.608C48.0085 42.86 47.6305 43.322 47.6305 43.826C47.6305 44.568 48.4005 44.932 50.2345 44.932Z" fill="#1A2854"/>
</svg>
